<svg width="498" height="467" viewBox="0 0 498 467" fill="none" xmlns="http://www.w3.org/2000/svg">
<path fill-rule="evenodd" clip-rule="evenodd" d="M268.9 405.265C358.273 405.265 370.942 367.979 384.494 361.128C398.045 354.276 389.62 340.526 398.507 330.155C412.704 313.589 421.308 322.127 426.006 300.636C430.705 279.146 422.163 273.066 422.163 253.879C422.163 215.438 441.8 197.241 416.723 177.128C391.646 157.015 349.769 159.389 308.351 159.389C231.476 159.389 185.421 60.5645 82.888 90.2128C47.5529 100.43 51.4581 114.354 59.2223 163.561C62.5939 184.929 37.1373 212.097 41.5541 236.379C49.6209 280.729 70.9258 274.713 111.123 304.656C117.867 309.68 127.703 309.628 135.054 314.78C147.38 323.417 148.172 336.848 171.215 345.907C208.37 360.515 205.219 405.265 268.9 405.265Z" fill="#F8970C"/>
<ellipse cx="98.0441" cy="290.785" rx="22.5958" ry="19.9253" fill="white"/>
<path fill-rule="evenodd" clip-rule="evenodd" d="M89.1828 219.743C85.3308 210.722 88.6956 205.317 90.8524 198.261C92.654 192.367 106.743 182.793 113.227 192.776C115.135 195.713 114.37 198.489 118.539 201.07C128.631 207.318 123.126 194.355 123.501 191.078C123.684 189.48 122.244 185.793 122.78 184.251C123.342 182.632 126.341 180.332 126.341 176.977C126.341 173.622 120.242 172.329 118.539 171.505C103.408 164.179 93.7846 151.943 98.5802 145.732C105.262 137.08 131.447 150.694 139.315 151.943C139.417 151.959 140.822 145.08 141.97 143.505C144.266 140.353 146.804 137.294 149.831 134.743C151.187 133.601 153.026 132.895 154.833 132.667C160.24 131.982 165.772 131.421 171.188 132.041C173.102 132.26 184.499 119.89 188.943 115.9C223.039 85.2868 291.39 122.592 254.133 173.285C247.285 182.602 238.528 185.565 237.398 188.858C234.886 196.172 250.699 195.21 257.398 195.992C268.841 197.326 274.481 202.839 267.378 212.288C262.952 218.174 236.99 217.874 225.617 213.617C221.396 212.037 216.18 205.13 212.19 210.796C209.441 214.7 198.724 222.983 187.227 227.669C182.038 229.784 176.127 228.509 171.699 230.398C165.466 233.056 147.065 244.219 139.315 244.216C131.51 244.213 121.41 235.406 120.242 234.828C118.46 233.947 104.683 231.423 97.8765 221.574C95.8182 218.595 90.5928 223.045 89.1828 219.743Z" fill="white"/>
<ellipse cx="221.705" cy="167.446" rx="2.39362" ry="2.21252" fill="#FFB61D"/>
<ellipse cx="204.18" cy="162.827" rx="2.32399" ry="2.17933" fill="#FFB61D"/>
<ellipse cx="373.5" cy="160.959" rx="31.54" ry="29.5767" fill="white"/>
<ellipse cx="274.879" cy="328.75" rx="91.6486" ry="73.4565" fill="white"/>
<path fill-rule="evenodd" clip-rule="evenodd" d="M197.182 368.803L198.211 369.501C195.889 371.454 192.397 369.025 190.439 366.749C187.29 363.088 184.095 359.197 183.137 354.581C182.592 351.954 182.81 349.247 183.03 346.579L183.918 335.82C184.312 331.053 184.707 326.277 185.587 321.567C187.969 308.82 193.964 296.683 202.792 286.736L202.881 286.636C204.44 284.881 206.142 282.963 206.112 280.687C206.049 275.871 209.006 271.371 212.889 268.218C216.772 265.066 221.527 263.042 226.209 261.062C228.33 260.165 231.1 259.361 232.744 260.906C236.125 264.082 241.768 262.058 246.234 260.445C251.717 258.465 257.574 257.398 263.449 257.309C263.62 257.306 263.793 257.304 263.966 257.301C267.493 257.254 271.464 257.201 273.616 254.638C274.986 253.006 277.606 253.101 279.805 253.348L294.931 255.044C296.087 255.174 297.472 255.47 297.836 256.507C298.813 259.286 302.26 260.42 305.248 261.265C315.872 264.269 326.256 268.348 335.275 274.409C344.294 280.47 351.918 288.623 355.962 298.313C349.386 289.883 342.639 281.295 333.512 275.309C330.9 273.596 328.122 272.117 325.302 270.723C318.647 267.433 311.721 264.597 304.525 262.538C271.122 252.977 232.483 261.844 207.563 284.79C203.949 288.117 200.561 291.781 198.512 296.124L201.219 296.911C196.929 298.709 193.742 302.649 193.052 307.008C194.779 304.235 197.24 301.868 200.152 300.178C199.318 302.789 197.151 304.887 195.026 306.943C192.317 309.564 189.679 312.118 189.959 315.582C191.244 312.417 194.484 310.028 198.066 309.603C192.384 314.809 186.286 320.92 186.467 328.368C188.54 324.067 192.059 320.391 196.397 317.998L190.152 325.867C187.791 328.843 185.304 332.244 185.844 335.919C187.898 332.461 190.835 329.469 194.34 327.263C192.653 330.862 190.243 334.162 187.275 336.939C190.097 336.62 192.815 335.523 195.003 333.822C194.086 335.023 193.259 336.378 193.228 337.855C193.197 339.332 194.218 340.917 195.777 341.13C196.249 340.14 197.729 339.722 198.705 340.303C195.747 343.002 195.716 348.004 198.642 350.735C198.902 349.451 200.056 348.37 201.425 348.127C199.243 351.705 198.851 356.198 200.383 360.061C200.847 357.872 202.142 355.847 203.982 354.432C202.921 359.624 200.575 364.581 197.182 368.803ZM195.89 367.149C197.737 367.131 198.886 365.193 199.079 363.47C199.31 361.408 198.763 359.348 198.222 357.339L195.008 345.419C194.403 345.599 194.333 346.216 194.259 346.862C194.197 347.414 194.131 347.987 193.729 348.327C192.916 347.378 192.823 345.942 193.509 344.909C194.202 343.865 193.749 342.404 192.766 341.591C191.784 340.778 190.417 340.502 189.107 340.461C188.399 340.439 187.646 340.49 187.067 340.873C186.488 341.255 186.183 342.067 186.595 342.608C187.819 344.217 188.741 346.029 189.303 347.934C189.346 348.077 189.386 348.221 189.427 348.366C189.707 349.355 189.995 350.372 190.766 351.077C191.363 351.622 191.515 352.454 191.636 353.227L192.618 359.49C192.797 360.63 192.975 361.793 192.771 362.929C192.566 364.065 191.912 365.192 190.813 365.707L194.322 366.827C194.831 366.989 195.352 367.154 195.89 367.149ZM234.139 264.491C233.448 264.628 232.868 264.058 232.373 263.571L232.316 263.516C231.809 263.018 230.936 262.585 230.402 263.056C224.174 268.551 217.086 273.188 209.437 276.772C208.048 277.422 207.862 279.176 207.861 280.631C207.861 281.117 208.357 281.8 208.68 281.42C210.258 279.566 212.309 278.128 214.336 276.71C220.04 272.722 225.812 268.697 232.352 266.068C233.145 265.749 234.074 265.298 234.139 264.491ZM296.737 258.311C296.384 257.534 295.38 257.254 294.495 257.098C292.085 256.672 289.631 256.479 287.18 256.286C283.813 256.021 280.452 255.757 277.212 254.89C276.174 254.612 275.287 255.599 274.718 256.459C276.425 256.292 278.143 256.223 279.859 256.253C282.846 256.304 285.817 256.653 288.782 257.002C290.288 257.179 291.805 257.358 293.249 257.796C293.418 257.847 293.587 257.902 293.758 257.957L293.758 257.957C294.744 258.274 295.763 258.603 296.737 258.311ZM264.85 270.25C265.533 270.396 266.183 270.874 266.285 271.524C266.387 272.172 265.915 272.804 265.311 273.133C264.708 273.463 263.995 273.556 263.302 273.642L261.218 273.901C261.009 273.927 260.794 273.955 260.612 274.055C260.089 274.346 260.125 275.135 260.553 275.54C260.981 275.946 261.639 276.047 262.247 276.046C265.083 276.041 267.767 274.127 268.633 271.596C268.839 270.994 268.947 270.326 268.693 269.741C268.564 269.445 268.348 269.188 268.108 268.96C266.993 267.9 265.331 267.433 263.747 267.538C262.164 267.643 260.657 268.275 259.369 269.145C258.751 269.562 258.162 270.05 257.811 270.683C257.46 271.316 257.385 272.12 257.778 272.731C257.928 272.964 258.159 273.171 258.445 273.215C258.732 273.259 259.062 273.085 259.098 272.815C259.197 272.064 259.781 271.43 260.478 271.048C261.174 270.666 261.977 270.499 262.769 270.35C263.455 270.221 264.168 270.103 264.85 270.25ZM208.972 307.391C209.751 303.069 213.473 299.556 217.813 297.928C220.204 297.031 222.94 296.637 225.345 297.502C225.938 297.715 226.513 298.01 226.941 298.451C227.342 298.865 227.595 299.387 227.786 299.918C229.008 303.316 227.768 307.246 225.143 309.854C222.518 312.462 218.696 313.831 214.882 314.087C213.66 314.169 212.348 314.123 211.339 313.471C210.329 312.82 209.828 311.373 210.606 310.485C210.973 310.502 211.171 310.809 211.374 311.124C211.474 311.28 211.576 311.437 211.7 311.562C212.123 311.99 212.824 312.021 213.446 311.996C216.15 311.89 218.896 311.261 221.097 309.784C223.299 308.306 224.881 305.893 224.834 303.355C224.819 302.537 224.63 301.701 224.135 301.027C223.324 299.92 221.791 299.421 220.362 299.509C218.934 299.598 217.594 300.192 216.378 300.9C214.777 301.832 213.298 303.003 212.295 304.498C211.291 305.993 210.801 307.841 211.225 309.563C210.85 310.197 209.735 310.071 209.275 309.488C208.814 308.905 208.843 308.106 208.972 307.391ZM233.88 343.008C231.902 344.202 230.261 346.07 229.956 348.258C229.709 350.029 230.342 351.791 230.965 353.478C231.452 354.795 231.955 356.139 232.881 357.228C234.555 359.195 237.327 360.009 239.976 360.408C240.698 360.517 241.792 360.212 241.535 359.57C238.738 359.522 235.987 358.306 234.166 356.314C232.346 354.322 231.486 351.586 231.864 348.987C231.943 348.44 232.076 347.896 232.321 347.394C232.817 346.378 233.741 345.598 234.741 344.992C236.893 343.687 239.514 343.076 242.068 343.283C244.529 343.482 246.989 344.494 248.492 346.334C249.995 348.173 250.353 350.887 249.027 352.842C248.811 353.16 248.654 353.722 249.049 353.788C251.184 352.71 252.369 350.331 252.249 348.06C252.13 345.788 250.851 343.662 249.093 342.095C248.121 341.228 246.97 340.496 245.666 340.202C243.947 339.813 242.148 340.214 240.438 340.636C238.162 341.197 235.859 341.814 233.88 343.008ZM331.063 345.829C323.907 343.324 316.132 342.39 308.534 343.123C305.348 343.431 302.152 344.041 299.288 345.385C293.884 347.921 290.02 353.142 289.377 358.777C288.734 364.412 291.333 370.282 296.042 373.833C297.828 375.179 299.856 376.187 301.886 377.197C303.271 377.886 304.658 378.576 305.971 379.375C306.345 379.711 305.502 380.046 305.009 379.897C300.419 378.508 295.962 376.394 292.688 373.073C288.706 369.033 286.763 363.296 287.531 357.842C288.3 352.387 291.764 347.32 296.728 344.388C300.655 342.069 305.35 341.091 309.988 340.935C314.626 340.778 319.25 341.399 323.836 342.066C326.7 342.482 330.058 343.28 331.063 345.829ZM255.772 354.237C255.447 353.539 254.14 353.357 253.902 354.085C252.384 358.717 247.564 362.219 242.402 362.441C241.235 362.491 240.067 362.39 238.904 362.284C236.401 362.057 233.818 361.789 231.625 360.633C228.472 358.97 226.575 355.556 226.553 352.164C226.53 348.772 228.246 345.475 230.851 343.122C230.49 342.172 228.937 342.631 228.166 343.334C223.893 347.228 223.16 353.951 226.158 358.78C229.156 363.609 235.44 366.316 241.363 365.702C247.285 365.088 252.633 361.369 255.386 356.414C255.762 355.738 256.097 354.935 255.772 354.237ZM218.682 377.693C217.717 381.162 217.625 384.843 218.416 388.351C218.771 389.924 218.81 390.791 218.817 390.954C218.818 390.972 218.818 390.982 218.819 390.982C218.819 390.982 218.82 390.977 218.82 390.968L218.821 390.954C218.829 390.791 218.871 389.921 219.233 388.345C220.043 384.83 219.85 381.117 218.682 377.693ZM223.807 379.791C222.437 382.485 222.607 385.819 224.245 388.379C224.613 388.954 224.893 389.421 225.099 389.766C225.377 390.232 225.521 390.474 225.571 390.456C225.625 390.436 225.566 390.111 225.445 389.433C225.396 389.16 225.337 388.83 225.271 388.44L223.807 379.791ZM227.667 383.232C227.085 384.952 227.513 386.941 228.761 388.315C230.035 389.718 230.451 390.168 230.063 388.362C229.667 386.518 228.844 384.755 227.667 383.232ZM339.357 363.665C337.607 370.253 332.016 375.245 326.596 379.747C326.844 380.247 327.645 380.068 328.158 379.797C333.648 376.899 338.09 372.177 340.117 366.583C342.144 360.99 341.64 354.563 338.44 349.474C338.172 349.047 337.83 348.592 337.311 348.496C336.792 348.401 336.194 348.965 336.499 349.371C339.574 353.455 340.645 358.813 339.357 363.665ZM260.424 304.178C260.411 303.136 260.427 302.008 261.098 301.177C262.022 300.033 263.775 299.913 265.305 299.893C265.988 299.884 266.68 299.876 267.344 300.024C268.759 300.34 269.886 301.319 270.89 302.305C271.113 302.524 271.349 302.793 271.294 303.09C271.226 303.459 270.733 303.629 270.342 303.554C270.081 303.503 269.848 303.382 269.614 303.261C269.496 303.199 269.378 303.138 269.257 303.086C267.85 302.48 266.196 303.144 264.932 303.982C264.734 304.114 264.519 304.283 264.515 304.511C264.51 304.741 264.719 304.918 264.916 305.054C266.624 306.227 268.81 306.77 270.913 306.544C271.416 306.489 272.007 306.317 272.137 305.858C272.188 305.679 272.169 305.468 272.149 305.264C272.117 304.923 272.087 304.603 272.393 304.485C272.552 304.423 272.732 304.467 272.897 304.513C274.036 304.823 275.367 305.322 275.587 306.414C275.651 306.73 275.605 307.059 275.498 307.364C275.185 308.257 274.311 308.954 273.321 309.102C272.882 309.167 272.433 309.132 271.989 309.096C270.831 309.003 269.671 308.909 268.523 308.736C266.416 308.417 264.354 307.829 262.415 306.991C261.742 306.7 261.043 306.342 260.702 305.725C260.443 305.257 260.431 304.706 260.424 304.178ZM303.716 278.477C303.039 276.76 301.402 275.405 299.501 274.988C298.913 274.859 298.249 274.827 297.75 275.147C297.251 275.466 297.079 276.245 297.555 276.595C298.016 276.933 297.738 277.73 297.174 277.881C296.611 278.031 296.005 277.673 295.723 277.191C295.442 276.709 295.412 276.137 295.408 275.587C295.404 274.854 295.475 274.036 296.053 273.542C296.273 273.354 296.547 273.232 296.819 273.118C297.944 272.647 299.188 272.247 300.391 272.5C301.536 272.741 302.45 273.535 303.249 274.342C303.904 275.003 304.523 275.696 305.104 276.416C305.616 277.051 306.109 277.728 306.301 278.503C306.493 279.278 306.327 280.177 305.689 280.701C305.064 281.214 304.103 281.258 303.344 280.941C302.674 280.661 302.102 280.045 302.152 279.359C302.202 278.672 303.101 278.103 303.716 278.477ZM309.762 326.752C311.442 326.707 313.008 325.493 313.371 323.954C313.592 323.018 313.319 321.905 312.45 321.402C311.814 321.034 311.015 321.061 310.27 321.105C309.238 321.168 308.167 321.252 307.271 321.735C306.374 322.218 305.708 323.219 305.988 324.153C306.445 325.67 308.082 326.797 309.762 326.752ZM309.978 324.479C309.653 324.561 309.19 324.482 309.16 324.168C309.148 324.037 309.223 323.914 309.309 323.81C309.787 323.23 310.696 323.005 311.417 323.288C311.166 323.863 310.618 324.317 309.978 324.479ZM310.846 301.162C310.572 300.57 311.102 299.88 311.747 299.653C312.263 299.471 312.823 299.49 313.379 299.509H313.379H313.379H313.38H313.38C313.518 299.513 313.656 299.518 313.793 299.52C314.481 299.528 315.241 299.42 315.688 298.929C315.845 298.756 315.952 298.501 315.832 298.303C315.707 298.096 315.411 298.061 315.157 298.048C313.403 297.963 311.332 298.013 310.32 299.36C310.103 299.65 309.571 299.552 309.368 299.254C309.164 298.955 309.211 298.564 309.327 298.227C309.741 297.02 310.93 296.142 312.229 295.79C313.528 295.438 314.923 295.549 316.241 295.829C316.686 295.923 317.148 296.047 317.472 296.348C317.73 296.586 317.874 296.911 317.968 297.239C318.417 298.805 317.754 300.599 316.367 301.568C314.981 302.537 312.959 302.62 311.487 301.769C311.224 301.617 310.969 301.428 310.846 301.162ZM304.833 328.833C305.647 329.748 306.612 330.58 307.783 331.046C310.149 331.988 313.173 331.118 314.568 329.094C315.076 328.357 315.304 327.233 314.552 326.71C313.348 329.082 309.857 330.13 307.408 328.853C306.939 328.609 306.513 328.296 306.125 327.948C304.364 326.367 303.446 323.785 304.479 321.714C304.815 321.039 305.333 320.456 305.898 319.932C307.132 318.79 308.897 317.855 310.544 318.363C310.567 318.371 310.591 318.378 310.614 318.386L310.655 318.4C310.686 318.41 310.717 318.421 310.748 318.431C310.979 318.511 311.21 318.591 311.453 318.578C311.767 318.561 312.096 318.297 312.015 318.012C311.991 317.927 311.935 317.854 311.877 317.785C310.859 316.569 308.862 316.194 307.423 316.948C305.71 317.845 303.97 318.902 303.059 320.531C301.576 323.183 302.786 326.534 304.833 328.833ZM332.112 287.923C332.037 288.024 332.056 288.165 332.074 288.3C332.095 288.46 332.115 288.612 331.975 288.677C331.463 288.914 330.849 288.889 330.303 288.732C328.811 288.303 327.811 287.019 326.967 285.788C326.473 285.069 325.982 284.304 325.902 283.452C325.823 282.599 326.287 281.64 327.163 281.399C328.139 281.13 329.096 281.811 329.856 282.445C330.714 283.161 331.59 283.898 332.12 284.853C332.65 285.807 332.768 287.04 332.112 287.923ZM328.869 284.73C329.079 284.921 329.194 285.179 329.31 285.437C329.423 285.691 329.537 285.945 329.742 286.136C330.001 286.378 330.394 286.487 330.752 286.415C330.082 285.441 329.305 284.533 328.437 283.707C328.205 283.773 328.186 284.095 328.325 284.281C328.41 284.394 328.528 284.477 328.647 284.56C328.724 284.613 328.801 284.667 328.869 284.73ZM201.175 372.671C201.092 373.948 201.197 375.428 202.287 376.198C202.65 376.008 202.625 375.521 202.58 375.133C202.298 372.745 203.088 370.444 203.883 368.127C204.453 366.469 205.025 364.803 205.208 363.092C205.261 362.595 205.12 361.916 204.588 361.897C204.19 361.883 203.933 362.277 203.773 362.619C202.283 365.791 201.399 369.212 201.175 372.671ZM306.929 326.601C308.159 327.111 309.522 327.632 310.81 327.265C311.322 327.119 311.777 326.842 312.226 326.568C312.224 327.274 311.577 327.866 310.856 328.068C310.135 328.269 309.359 328.161 308.624 328.012C307.807 327.846 306.808 327.376 306.929 326.601ZM209.627 385.484C209.941 384.96 209.994 384.338 210.041 383.739L210.412 378.963C210.594 376.619 210.777 374.266 210.613 371.921C210.593 371.626 210.561 371.314 210.377 371.073C210.193 370.832 209.804 370.703 209.552 370.882C209.367 371.014 209.32 371.252 209.288 371.468C208.885 374.18 208.669 376.916 208.643 379.654C208.624 381.639 208.721 383.69 209.627 385.484ZM204.061 381.38C203.734 381.638 203.191 381.411 203.011 381.047C202.832 380.684 202.904 380.26 202.981 379.866C203.787 375.745 204.702 371.641 205.723 367.562C205.749 367.46 205.776 367.354 205.846 367.272C206.116 366.961 206.659 367.274 206.85 367.633C207.318 368.513 207.094 369.563 206.859 370.522L204.342 380.818C204.292 381.023 204.232 381.244 204.061 381.38ZM212.78 381.563C212.64 383.109 212.887 384.66 213.133 386.194C213.221 386.74 213.64 387.466 214.167 387.218L215.192 376.932C215.234 376.514 215.262 376.049 214.986 375.719C214.709 375.389 214.008 375.402 213.92 375.814L213.164 379.341C213.006 380.077 212.848 380.815 212.78 381.563ZM318.699 350.038C315.779 348.628 312.224 348.073 309.191 349.254C306.925 350.136 300.521 353.947 299.669 358.831C299.099 362.101 299.105 365.442 300.325 368.598L300.521 369.094C300.885 369.988 302.043 371.015 302.69 370.276C300.8 367.071 300.447 363.104 301.744 359.65C303.042 356.196 305.969 353.311 309.584 351.925C310.344 351.634 311.139 351.404 311.957 351.332C313.611 351.185 315.262 351.687 316.742 352.398C319.926 353.928 323.871 356.472 325.387 359.511C326.848 362.442 327.924 365.936 326.602 368.924C325.279 371.911 316.593 374.073 316.593 374.073L317.554 375.718C317.554 375.718 322.417 374.818 325.387 372.79C337.854 364.274 321.492 351.387 318.699 350.038Z" fill="#00160A"/>
<path fill-rule="evenodd" clip-rule="evenodd" d="M98.3057 307.994C93.8964 308.437 89.2261 307.481 85.7833 304.86C83.345 303.003 81.6317 300.421 80.4295 297.7C79.1243 294.745 78.3739 291.577 78.223 288.382C78.1662 287.179 78.1967 285.954 78.5736 284.804C79.1939 282.91 80.6877 281.39 82.2126 280.018C85.4567 277.101 89.2698 274.439 93.7168 273.825C96.7471 273.407 99.8296 273.977 102.796 274.693C105.125 275.255 107.452 275.918 109.548 277.026C114.178 279.474 117.386 284.143 117.851 289.109C118.315 294.074 117.744 297.364 110.598 303.534C106.885 305.807 102.715 307.55 98.3057 307.994ZM106.082 292.407C105.366 292.618 104.654 292.992 103.915 292.87C102.407 292.621 102.137 290.681 102.472 289.279C103.431 285.268 106.413 281.725 110.351 279.919C109.459 278.402 107.091 278.291 105.416 279.02C103.741 279.748 102.432 281.062 100.812 281.893C100.006 282.307 99.0509 282.6 98.174 282.342C96.7311 281.918 96.1803 280.146 96.6526 278.799C97.125 277.452 98.304 276.447 99.436 275.507C95.334 275.642 91.2751 276.796 87.7844 278.821C85.0518 280.406 82.4597 283.005 82.8223 285.999C85.0817 284.294 87.7345 283.049 90.5446 282.375C91.1406 282.233 91.8887 282.161 92.2617 282.62C92.5442 282.967 92.4631 283.467 92.2821 283.87C91.3839 285.867 88.7424 286.537 87.104 288.067C86.8889 288.268 86.6826 288.5 86.6305 288.78C86.5284 289.33 87.087 289.831 87.6738 289.923C88.2606 290.015 88.8497 289.814 89.4064 289.617C90.5624 289.208 91.7184 288.799 92.8744 288.39C93.7113 288.094 94.7048 287.812 95.449 288.277C96.2189 288.758 96.2915 289.853 95.8563 290.619C95.4212 291.385 94.6225 291.898 93.8539 292.381C92.0012 293.546 90.1485 294.71 88.2958 295.874C86.7447 296.849 85.0068 298.164 85.1543 299.909C85.2931 301.553 87.2207 302.669 88.9748 302.564C90.7289 302.458 92.2726 301.452 93.5672 300.337C94.8618 299.222 96.0303 297.949 97.5337 297.095C98.5147 296.538 99.9145 296.229 100.711 297.002C101.327 297.6 101.268 298.561 101.037 299.363C100.371 301.675 98.57 303.677 96.2517 304.682C98.1378 305.09 100.105 305.167 102.021 304.907C103.113 304.759 104.245 304.475 105.035 303.752C105.825 303.029 106.131 301.757 105.445 300.945C104.423 299.735 104.464 297.963 105.117 296.546C105.77 295.128 106.937 293.984 108.08 292.872C107.753 292.239 106.797 292.196 106.082 292.407ZM114.814 295.155C115.841 292.928 115.879 290.41 115.618 287.997C115.331 285.328 114.338 282.275 111.657 281.34C107.727 282.87 104.695 286.282 103.799 290.182C103.724 290.51 103.665 290.862 103.802 291.172C103.94 291.481 104.348 291.707 104.665 291.551C105.751 291.017 107.088 290.714 108.192 291.215C109.296 291.715 109.834 293.276 108.94 294.063C107.952 294.933 106.937 295.837 106.404 297.006C105.871 298.174 105.948 299.686 106.951 300.54C107.706 301.182 107.708 302.442 106.955 303.085C109.094 302.499 110.618 300.775 112.005 299.14C113.065 297.89 114.138 296.621 114.814 295.155ZM90.1926 283.641C87.9678 284.506 85.8082 285.519 83.7353 286.669C83.2423 286.943 82.7441 287.232 82.3837 287.65C81.8969 288.213 81.712 288.949 81.5616 289.661C81.0757 291.959 80.8252 294.434 81.8545 296.569C82.1831 297.251 82.6322 297.874 83.079 298.494C83.2109 298.676 83.3607 298.872 83.5867 298.933C83.8128 298.995 84.1114 298.824 84.0583 298.609C83.8946 297.946 84.43 297.323 84.9582 296.856C88.0522 294.125 92.2204 292.558 95.0027 289.546C94.5806 289.077 93.78 289.298 93.1782 289.539C91.7448 290.112 90.2669 290.588 88.7599 290.961C87.9826 291.154 87.1163 291.31 86.4068 290.955C85.3685 290.436 85.1995 289.016 85.7479 288.04C86.2964 287.063 87.339 286.433 88.3445 285.86C89.35 285.287 90.4049 284.689 91.0082 283.742C90.8984 283.472 90.4769 283.531 90.1926 283.641ZM97.8069 301.936C98.7901 301.195 99.8524 300.321 99.9596 299.143C100.016 298.527 99.5943 297.773 98.9377 297.832C98.736 297.85 98.5517 297.944 98.3777 298.041C95.5185 299.643 93.6369 302.775 90.4116 303.553C91.323 303.936 92.2733 304.237 93.2454 304.451C93.5349 304.515 93.8363 304.571 94.1275 304.514C94.4663 304.449 94.7498 304.239 95.0195 304.036C95.9486 303.336 96.8778 302.636 97.8069 301.936ZM100.466 276.331C99.8296 276.991 99.1934 277.651 98.5571 278.311C98.0532 278.833 97.5126 279.523 97.7931 280.177C97.9997 280.658 98.61 280.902 99.1619 280.862C99.7139 280.821 100.217 280.557 100.679 280.272C102.329 279.257 103.814 277.875 105.739 277.469C104.404 277.013 103.069 276.557 101.735 276.101C101.457 276.006 101.147 275.911 100.874 276.017C100.71 276.08 100.585 276.208 100.466 276.331Z" fill="#00160A"/>
<path fill-rule="evenodd" clip-rule="evenodd" d="M125.301 197.508C125.135 200.635 122.562 204.021 119.247 203.651C117.751 202.029 116.58 200.014 115.422 198.024C113.199 194.201 111.027 190.464 106.699 189.755C102.449 189.059 98.4899 191.99 95.8425 195.186C92.0082 199.814 89.5304 205.42 88.7494 211.235C88.2902 214.653 89.7851 219.394 93.4374 219.018C97.6092 218.588 100.576 221.666 103.594 224.795C106.387 227.692 109.223 230.634 113.098 230.882C117.713 231.178 121.482 233.77 125.297 236.394C127.845 238.147 130.414 239.914 133.269 241.02C138.64 243.101 144.833 242.698 150.316 240.891C155.798 239.084 160.677 235.971 165.295 232.663L165.537 232.49C168.058 230.682 170.696 228.789 173.831 228.391C189.858 226.355 204.766 217.539 213.632 204.854C226.202 214.277 243.777 217.497 259.205 213.205C261.823 212.477 264.457 211.5 266.398 209.7C268.34 207.899 269.44 205.103 268.486 202.704C267.443 200.08 264.324 198.676 261.36 198.338C259.735 198.153 258.098 198.207 256.459 198.262H256.459H256.459H256.459H256.459H256.458C255.108 198.307 253.756 198.352 252.41 198.263C244.261 197.723 237.475 192.452 231.304 187.431C240.245 184.859 247.494 178.4 252.281 170.866C257.067 163.332 259.632 154.749 261.581 146.172C262.606 141.659 263.368 136.574 260.618 132.747C259.388 131.034 257.583 129.781 255.785 128.533C253.76 127.128 251.743 125.728 250.562 123.683C248.291 119.748 243.865 117.414 239.667 115.289C228.681 109.726 216.061 104.001 204.221 107.716C199.608 109.163 195.624 111.936 191.74 114.68C185.289 119.237 178.379 124.583 177.151 132.068C166.596 127.64 152.941 131.176 146.306 140.056C144.788 142.088 143.623 144.327 142.459 146.565C141.089 149.199 139.72 151.831 137.78 154.114C129.986 150.784 122.045 147.758 113.985 145.044C110.411 143.841 106.142 142.778 103.062 144.861C100.592 146.531 99.8349 149.808 100.56 152.581C101.285 155.354 103.22 157.705 105.295 159.793C109.797 164.325 115.205 168.063 121.154 170.755C121.346 170.842 121.539 170.928 121.733 171.015L121.733 171.015C123.596 171.847 125.511 172.702 126.751 174.229C128.12 175.916 128.205 178.738 126.285 179.857C123.45 181.509 122.928 185.218 123.509 188.301C123.708 189.354 123.999 190.398 124.29 191.44C124.851 193.447 125.411 195.45 125.301 197.508ZM202.284 213.995C195.139 221.03 185.085 225.146 174.804 226.349C164.523 227.552 154.026 225.988 144.205 222.893C146.847 222.891 148.757 219.648 147.352 217.551C141.939 223.467 133.688 226.238 125.825 228.769C118.722 231.055 110.231 229.394 105.014 224.329C99.7959 219.264 98.3839 210.953 102.053 204.808C103.648 202.137 106.353 199.812 109.606 199.55C112.858 199.288 116.36 201.817 116.059 204.865C114.249 204.57 112.344 206.012 112.27 207.733C119.271 207.026 125.854 203.263 129.732 197.752C131.071 195.849 132.089 193.777 133.107 191.703C133.791 190.311 134.475 188.918 135.257 187.574C137.203 184.231 139.999 181.043 143.872 179.894C146.981 178.972 150.341 179.484 153.554 180.003L167.829 182.311C168.897 181.446 167.167 180.06 165.785 179.79C161.324 178.916 156.8 178.377 152.277 177.838C148.082 177.339 143.886 176.839 139.74 176.072C131.122 174.477 122.46 171.561 116.188 165.795C120.443 163.499 123.68 159.599 125.008 155.168C125.277 154.271 124.636 152.799 123.86 153.379C122.973 156.256 122.012 159.256 119.789 161.407C117.567 163.557 113.666 164.501 111.151 162.657C107.885 160.262 104.452 157.649 103.161 153.955C101.87 150.261 103.912 145.3 108.03 144.847C109.878 144.644 111.684 145.36 113.388 146.061L130.581 153.128C135.699 155.231 140.892 157.356 146.419 158.119C150.3 158.655 154.247 158.505 158.167 158.353L169.279 157.923C169.733 157.906 170.199 157.886 170.617 157.718C171.734 157.272 172.112 155.993 172.359 154.879C175.34 141.386 179.347 127.146 190.185 117.842C195.035 113.678 201.076 110.746 207.502 109.439C213.836 108.15 220.824 108.529 226.277 111.814C217.13 112.445 208.247 116.062 201.51 121.9C198.68 119.066 193.412 121.382 191.154 124.637C187.655 129.682 187.718 136.69 191.309 141.678C194.331 145.877 195.452 150.887 196.576 155.909C197.608 160.524 198.643 165.149 201.158 169.163C205.136 175.514 212.545 179.59 220.283 180.854C228.021 182.118 236.043 180.798 243.397 178.211C235.166 185.91 222.017 188.573 211.132 184.746C210.338 184.467 209.549 184.155 208.759 183.843L208.759 183.843L208.759 183.843L208.759 183.843L208.759 183.843C206.257 182.855 203.748 181.864 201.065 181.894C202.637 183.455 204.644 184.626 206.831 185.259C204.309 189.232 201.663 193.135 198.898 196.963C198.544 197.452 198.141 197.974 197.536 198.139C196.861 198.324 196.157 198.009 195.542 197.69C190.457 195.055 185.9 191.528 182.175 187.347L174.723 195.847C178.547 200.23 183.018 204.116 187.968 207.36C181.38 214.993 171.398 219.964 160.966 220.809C171.765 221.324 182.697 216.574 189.26 208.516C193.414 210.703 197.779 212.539 202.284 213.995ZM236.436 139.256C238.822 136.816 239.706 133.331 239.502 130.026C239.298 126.72 238.113 123.542 236.801 120.468C240.219 120.088 243.692 121.297 246.414 123.272C249.137 125.247 251.182 127.934 252.86 130.752C254.893 134.169 256.452 137.864 257.129 141.725C258.722 150.816 255.321 160.085 250.48 168.102C249.54 169.659 248.528 171.205 247.156 172.448C245.774 173.699 244.075 174.599 242.332 175.358C235.144 178.49 226.875 179.394 219.111 177.896C224.067 174.026 227.567 168.695 229.797 163.02C232.026 157.345 233.046 151.314 233.634 145.291L233.637 145.257C233.785 143.739 233.941 142.142 234.864 140.888C235.169 140.473 235.547 140.113 235.926 139.753L235.926 139.753C236.098 139.589 236.27 139.425 236.436 139.256ZM227.466 164.341C225.328 169.032 222.014 173.34 217.522 176.219C216.996 176.556 216.432 176.881 215.799 176.95C215.24 177.012 214.681 176.867 214.144 176.708C210.325 175.578 206.717 173.574 204.267 170.604C203.378 169.526 202.652 168.337 202.004 167.117C197.289 158.231 196.827 147.451 200.767 138.239C200.955 137.799 201.225 137.305 201.72 137.213C202.362 137.093 202.854 137.709 203.214 138.22C206.158 142.403 211.661 144.52 217 144.739C222.339 144.959 227.59 143.536 232.652 141.931C231.73 144.047 231.495 146.352 231.262 148.635V148.635C231.233 148.922 231.204 149.21 231.173 149.496C230.63 154.573 229.605 159.65 227.466 164.341ZM226.379 120.759C229.111 120.177 232.299 120.016 234.386 121.769C235.06 122.335 235.561 123.061 235.973 123.816C238.558 128.554 237.546 134.794 233.575 138.596C228.984 142.991 221.718 143.716 215.18 143.194C212.834 143.007 210.422 142.669 208.42 141.508C205.829 140.006 204.294 137.359 202.875 134.832C209.174 128.231 217.168 122.723 226.379 120.759ZM248.473 200.44C247.616 202.469 246.751 204.526 246.47 206.693C246.19 208.86 246.555 211.185 247.96 212.925C236.299 213.53 224.448 210.158 215.111 203.578C218.122 199.582 220.5 195.168 222.142 190.524C222.791 188.69 225.268 187.925 227.278 188.35C229.129 188.741 230.683 189.854 232.199 190.94C232.33 191.034 232.46 191.127 232.59 191.22C237.554 194.754 243.024 197.603 248.473 200.44ZM166.984 228.153C165.145 230.094 162.947 231.706 160.701 233.226C156.015 236.4 150.904 239.284 145.208 240.206C136.86 241.557 127.841 238.18 122.78 231.81L140.988 225.44C141.424 225.288 141.876 225.133 142.34 225.157C142.603 225.171 142.855 225.242 143.108 225.313L143.108 225.313C143.277 225.36 143.445 225.407 143.617 225.437C144.202 225.541 144.791 225.45 145.384 225.359C145.752 225.302 146.122 225.245 146.492 225.234C147.855 225.196 149.107 225.78 150.346 226.358C150.661 226.505 150.975 226.651 151.289 226.786C156.118 228.869 161.685 228.532 166.984 228.153ZM140.693 155.096C140.565 154.827 140.7 154.517 140.836 154.251C144.564 146.928 149.497 140.145 155.407 134.215C159.563 139.627 162.329 145.971 163.407 152.564C163.623 153.881 163.39 155.704 161.979 155.869C155.217 156.659 148.337 156.552 141.606 155.551C141.251 155.498 140.84 155.404 140.693 155.096ZM166.161 154.644C164.769 147.466 161.878 140.547 157.701 134.392C161.237 132.646 165.416 132.618 169.411 132.63C171.935 132.637 174.689 132.72 176.612 134.253L171.624 148.054C170.777 150.397 169.92 152.806 170.027 155.278L166.874 155.325C166.761 155.327 166.645 155.328 166.542 155.288C166.289 155.189 166.21 154.896 166.161 154.644ZM206.73 189.964C207.568 188.628 208.366 187.201 208.451 185.653C212.223 187.244 216.377 188.032 220.513 187.942C221.162 187.928 221.139 188.866 220.872 189.422C220.067 191.102 219.261 192.785 218.329 194.407C217.373 196.071 216.287 197.667 215.203 199.262L212.603 203.083C212.247 203.606 211.88 204.141 211.351 204.514C209.932 205.514 207.906 205.033 206.287 204.351C203.601 203.219 201.128 201.643 199.018 199.717C201.949 196.735 204.539 193.46 206.73 189.964ZM109.178 193.266C110.428 194.448 111.245 195.962 112.041 197.45L108.292 197.951C107.042 198.118 105.761 198.295 104.657 198.868C103.583 199.425 102.754 200.319 102.025 201.245C98.9751 205.12 97.2849 209.919 97.2742 214.735C97.2703 216.474 95.0782 217.715 93.284 217.274C91.4899 216.833 90.271 215.162 89.9609 213.447C89.6507 211.732 90.0875 209.979 90.6353 208.317C92.5631 202.469 96.0115 196.946 101.114 193.129C102.088 192.4 103.165 191.717 104.397 191.532C106.15 191.27 107.928 192.084 109.178 193.266ZM266.641 203.055C267.075 203.577 267.396 204.214 267.377 204.876C267.351 205.731 266.773 206.481 266.151 207.107C262.531 210.744 256.968 211.983 251.699 212.567C251.352 212.605 250.988 212.64 250.662 212.52C250.394 212.422 250.179 212.229 249.988 212.027C248.717 210.687 248.214 208.813 248.317 207.022C248.42 205.23 249.079 203.505 249.9 201.885C250.073 201.543 250.273 201.185 250.626 201.002C250.907 200.856 251.242 200.845 251.564 200.837L257.94 200.68C259.51 200.641 261.097 200.604 262.634 200.908C264.171 201.211 265.676 201.893 266.641 203.055ZM195.575 146.555C192.977 142.04 191.033 137.195 189.813 132.194L190.863 129.565C192.162 127.207 193.799 125.014 195.716 123.062C196.497 122.267 197.851 122.179 198.928 122.562C200.006 122.945 200.873 123.707 201.71 124.45L205.474 127.795C205.586 127.894 205.703 128.002 205.741 128.142C205.811 128.406 205.578 128.648 205.368 128.835C203.605 130.407 202.038 132.179 200.782 134.133C198.884 137.086 197.725 140.395 196.581 143.672L195.575 146.555ZM205.197 121.199C212.862 117.349 221.246 113.726 229.892 114.593C234.413 115.046 238.737 116.732 242.502 119.121C231.716 116.521 219.693 118.919 210.969 125.411C209.621 126.414 207.598 127.504 206.397 126.347C206.089 126.05 205.887 125.634 205.691 125.229C205.377 124.579 205.075 123.957 204.371 123.896C203.698 123.838 203.399 122.983 203.684 122.409C203.97 121.835 204.602 121.498 205.197 121.199ZM184.139 191.614C185.652 192.977 187.318 194.181 188.98 195.381L195.696 200.232C193.628 201.941 191.605 203.697 189.628 205.499C184.923 202.884 180.724 199.472 177.293 195.478C179.171 193.643 180.974 191.741 182.696 189.777C182.966 190.502 183.549 191.082 184.139 191.614ZM140.96 178.495C137.424 181.085 133.768 183.812 131.823 187.604C131.443 188.345 131.129 189.125 130.816 189.903C130.15 191.558 129.485 193.208 128.193 194.467C127.621 194.31 127.396 193.677 127.256 193.133L125.911 187.884C125.729 187.176 125.546 186.448 125.649 185.726C125.752 185.008 126.13 184.353 126.501 183.717L130.449 176.952C130.537 176.801 130.628 176.646 130.769 176.536C131.118 176.264 131.635 176.351 132.076 176.452L140.96 178.495ZM198.405 201.736C200.816 204.061 203.813 205.848 207.081 206.91C207.692 206.371 208.873 206.668 209.114 207.422C207.99 208.79 206.755 210.079 205.425 211.274C204.83 211.807 203.878 211.694 203.077 211.522C199.16 210.679 195.388 209.25 191.945 207.307C191.715 207.177 191.456 206.992 191.479 206.74C191.494 206.572 191.636 206.44 191.769 206.325L196.602 202.151C197.109 201.713 197.924 201.273 198.405 201.736ZM260.113 143.423C260.068 143.935 259.991 144.505 259.565 144.827C259.561 140.809 258.499 136.796 256.498 133.243C256.135 132.598 255.742 131.969 255.304 131.366C255.248 131.289 255.191 131.211 255.133 131.134C254.692 130.536 254.24 129.925 254.133 129.211L259.312 134.284C259.788 134.751 260.278 135.238 260.504 135.849C260.721 136.438 260.669 137.08 260.615 137.701L260.113 143.423ZM254.162 136.976L252.989 135.589C251.699 134.064 250.116 132.399 248.04 132.397C246.835 132.395 245.727 132.974 244.682 133.536L243.058 134.409C242.614 134.648 242.158 134.896 241.846 135.275C240.944 136.37 241.602 137.968 242.454 139.097C243.044 139.878 243.751 140.628 244.69 141.003C245.904 141.49 247.3 141.275 248.573 140.945C250.315 140.495 251.999 139.845 253.575 139.014C254.079 138.748 254.635 138.359 254.61 137.818C254.595 137.499 254.374 137.226 254.162 136.976ZM243.916 138.046C243.714 137.744 243.506 137.422 243.502 137.067C243.496 136.371 244.236 135.904 244.888 135.571L247.202 134.387C247.552 134.208 247.917 134.025 248.314 134C248.712 133.974 249.155 134.154 249.288 134.506C249.683 135.546 250.656 136.375 251.797 136.644C252.166 136.732 252.285 137.211 252.11 137.529C251.936 137.846 251.578 138.032 251.237 138.191C250.017 138.758 248.741 139.221 247.432 139.572C246.907 139.712 246.351 139.835 245.82 139.717C244.951 139.523 244.391 138.755 243.916 138.046ZM227.449 148.762C225.153 149.013 224.716 152.895 225.783 154.965C226.002 155.391 226.345 155.83 226.846 155.889C227.701 155.991 228.174 155.001 228.363 154.212L228.367 154.194C228.617 153.154 229.731 148.513 227.449 148.762ZM215.609 153.854C216.068 152.85 216.221 151.725 216.045 150.645C215.964 150.143 215.803 149.633 215.445 149.252C215.088 148.871 214.497 148.649 213.987 148.821C213.526 148.977 213.237 149.4 213.018 149.811C212.248 151.263 211.941 152.928 212.146 154.539C212.242 155.288 213.249 155.697 214.013 155.46C214.777 155.223 215.292 154.548 215.609 153.854ZM222.377 151.556C222.733 151.279 223.183 151.782 223.327 152.194C223.802 153.549 224.196 154.93 224.505 156.326C224.701 157.209 224.862 158.126 224.654 159.006C224.36 160.247 223.355 161.256 222.188 161.903C221.021 162.549 219.692 162.884 218.383 163.211C218.037 163.298 217.602 163.36 217.378 163.097C217.189 162.875 217.282 162.526 217.498 162.325C217.71 162.128 218.005 162.038 218.289 161.95L218.305 161.945C220.347 161.316 222.529 160.181 223.004 158.216C223.265 157.136 222.947 156.05 222.628 154.96C222.337 153.967 222.045 152.97 222.189 151.97C222.211 151.818 222.25 151.654 222.377 151.556ZM208.12 147.136C207.582 146.438 208.012 145.376 208.792 144.921C209.572 144.466 210.557 144.472 211.468 144.582C212.555 144.714 213.625 144.973 214.644 145.352C214.861 145.433 215.095 145.536 215.19 145.735C215.367 146.105 214.91 146.51 214.477 146.51C214.129 146.51 213.814 146.353 213.502 146.197C213.426 146.16 213.351 146.122 213.276 146.087C211.574 145.295 209.318 145.754 208.12 147.136ZM227.729 146.895C228.537 146.769 229.395 146.944 230.074 147.374C230.358 147.554 230.765 147.252 230.766 146.93C230.768 146.609 230.512 146.339 230.243 146.14C229.663 145.712 228.941 145.456 228.204 145.417C227.729 145.392 227.203 145.478 226.896 145.82C226.59 146.162 226.683 146.804 227.141 146.923C227.305 146.966 227.477 146.937 227.646 146.909C227.674 146.904 227.701 146.9 227.729 146.895ZM217.694 166.595C217.922 166.474 218.222 166.685 218.256 166.928C218.29 167.171 218.142 167.403 217.973 167.59C217.125 168.528 215.664 168.817 214.374 168.597C213.084 168.377 211.928 167.727 210.839 167.041C210.328 166.718 209.824 166.385 209.328 166.041C208.813 165.685 208.266 165.249 208.204 164.653C208.142 164.056 208.957 163.455 209.423 163.866C210.567 164.876 211.736 165.903 213.159 166.527C214.582 167.152 216.326 167.319 217.694 166.595ZM193.204 171.378C188.438 161.665 186.45 150.768 187.501 140.121C187.519 139.939 187.544 139.744 187.672 139.607C187.853 139.413 188.224 139.421 188.395 139.623C188.334 145.479 188.275 151.371 189.295 157.149C190.314 162.928 192.479 168.644 196.432 173.179C196.55 173.315 196.67 173.45 196.79 173.585C197.47 174.349 198.155 175.12 198.541 176.042C195.971 175.996 194.278 173.568 193.204 171.378ZM197.878 127.516C197.79 127.426 197.687 127.348 197.568 127.299C197.224 127.16 196.821 127.303 196.52 127.512C195.321 128.344 195.316 130.291 196.512 131.129C197.095 130.663 197.693 130.179 198.035 129.536C198.377 128.893 198.398 128.043 197.878 127.516ZM208.22 137.773C209.512 138.757 210.986 139.532 212.555 140.054C217.619 141.738 223.31 140.681 228.197 138.586C228.944 138.266 229.896 138.435 230.467 138.988C227.329 141.085 223.485 142.238 219.632 142.237C218.782 142.237 217.934 142.182 217.087 142.113C215.355 141.971 213.61 141.763 211.981 141.194C210.352 140.625 208.83 139.663 207.908 138.281L208.22 137.773ZM263.366 201.776C263.315 201.938 263.454 202.092 263.581 202.211L265.506 204.002C265.715 203.487 265.48 202.887 265.076 202.486C264.673 202.085 264.128 201.841 263.596 201.606C263.492 201.611 263.395 201.682 263.366 201.776Z" fill="#00160A"/>
<path fill-rule="evenodd" clip-rule="evenodd" d="M389.733 132.125C392.091 132.891 394.311 130.897 396.342 129.539C399.486 127.438 403.586 126.643 407.36 127.404C407.986 127.53 408.642 127.72 409.054 128.179C409.431 128.599 409.538 129.172 409.599 129.719C409.971 133.062 409.079 136.517 407.119 139.33C406.165 140.699 404.97 141.918 404.117 143.345C403.264 144.771 402.777 146.514 403.385 148.046C406.997 157.159 405.494 167.907 399.497 175.838C393.5 183.769 383.181 188.656 372.816 188.474C367.515 188.381 362.321 187.054 357.326 185.386C355.147 184.658 352.751 183.859 350.588 184.628C346.641 186.03 342.485 186.916 338.279 187.251C337.236 187.334 336.145 187.377 335.182 186.991C333.741 186.412 332.87 184.947 332.705 183.484C332.539 182.022 332.97 180.559 333.515 179.18C335.157 175.02 340.256 168.523 343.343 167.026C343.093 161.975 343.12 156.865 344.285 151.928C345.449 146.991 347.826 142.2 351.724 138.707C353.335 137.264 355.177 136.063 357.107 135.021C366.87 129.75 379.09 128.665 389.733 132.125ZM374.867 131.715C367.402 131.878 360.135 134.69 354.299 139.059C352.586 140.342 350.975 141.767 349.689 143.432C348.676 144.745 347.874 146.193 347.204 147.687C343.229 156.552 344.137 167.203 349.562 175.364C349.68 175.542 349.816 175.731 350.027 175.8C350.287 175.885 350.568 175.761 350.811 175.639C367.85 167.124 383.017 155.331 395.095 141.205C395.382 140.868 395.685 140.477 395.623 140.05C395.576 139.73 395.333 139.469 395.094 139.235C389.941 134.168 382.332 131.551 374.867 131.715ZM385.303 184.636C393.396 181.073 399.543 174.032 402.172 166.019C402.768 164.204 403.195 162.328 403.237 160.43C403.273 158.834 403.035 157.245 402.798 155.663C402.455 153.371 402.111 151.079 401.768 148.787C401.677 148.179 401.052 147.377 400.596 147.817C387.933 160.038 374.106 171.197 359.333 181.117C358.841 181.448 358.3 181.856 358.274 182.422C358.243 183.078 358.91 183.554 359.517 183.881C367.262 188.07 377.21 188.199 385.303 184.636ZM335.382 183.703C335.971 184.588 337.247 184.77 338.36 184.799C344.196 184.95 349.97 183.346 355.192 180.897C360.413 178.448 365.139 175.172 369.732 171.791C375.858 167.283 381.8 162.558 387.592 157.676C394.765 151.631 401.813 145.219 406.522 137.327C407.433 135.8 408.273 134.126 408.131 132.382C407.988 130.637 406.505 128.876 404.641 128.945C400.685 129.089 396.796 130.516 393.785 132.926C393.186 133.405 393.609 134.425 394.346 134.685C395.083 134.944 395.905 134.686 396.625 134.388C397.345 134.09 398.095 133.741 398.877 133.823C400.073 133.948 400.922 135.095 400.993 136.221C401.064 137.347 400.533 138.429 399.908 139.392C398.75 141.175 397.238 142.729 395.71 144.247C382.129 157.739 366.462 169.383 349.353 178.7C347.812 179.539 346.253 180.363 344.595 180.974C343.725 181.295 342.727 181.552 341.879 181.185C340.487 180.584 340.375 178.751 340.793 177.369C341.42 175.293 342.775 173.416 344.597 172.099C344.252 171.187 343.907 170.275 343.561 169.363C339.063 172.057 335.905 176.641 335.136 181.595C335.025 182.309 334.975 183.09 335.382 183.703ZM348.174 177.444C348.206 177.35 348.148 177.252 348.091 177.169C347.51 176.303 346.929 175.437 346.348 174.571C346.085 174.179 345.576 173.735 345.182 174.014C343.761 175.017 342.744 176.511 342.372 178.142C342.299 178.464 342.256 178.823 342.443 179.102C342.791 179.62 343.621 179.505 344.236 179.298C345.546 178.858 346.809 178.292 347.996 177.612C348.07 177.57 348.148 177.521 348.174 177.444ZM398.732 136.224C398.673 135.999 398.388 135.901 398.141 135.891C397.392 135.86 396.61 136.438 396.657 137.139C396.705 137.84 397.817 138.282 398.281 137.731C398.422 137.564 398.481 137.352 398.537 137.146C398.592 136.942 398.647 136.739 398.703 136.535C398.731 136.433 398.758 136.326 398.732 136.224Z" fill="#00160A"/>
</svg>
