<svg width="236" height="62" viewBox="0 0 236 62" fill="none" xmlns="http://www.w3.org/2000/svg">
<path d="M23.472 45.56H8.88L6.192 53H1.584L13.68 19.736H18.72L30.768 53H26.16L23.472 45.56ZM22.224 42.008L16.176 25.112L10.128 42.008H22.224ZM40.4078 31.592C41.3038 30.024 42.6158 28.744 44.3438 27.752C46.0718 26.76 48.0398 26.264 50.2478 26.264C52.6158 26.264 54.7438 26.824 56.6318 27.944C58.5198 29.064 60.0078 30.648 61.0958 32.696C62.1838 34.712 62.7278 37.064 62.7278 39.752C62.7278 42.408 62.1838 44.776 61.0958 46.856C60.0078 48.936 58.5037 50.552 56.5837 51.704C54.6958 52.856 52.5838 53.432 50.2478 53.432C47.9758 53.432 45.9758 52.936 44.2478 51.944C42.5518 50.952 41.2718 49.688 40.4078 48.152V53H36.0398V17.48H40.4078V31.592ZM58.2638 39.752C58.2638 37.768 57.8638 36.04 57.0638 34.568C56.2638 33.096 55.1758 31.976 53.7998 31.208C52.4558 30.44 50.9678 30.056 49.3358 30.056C47.7358 30.056 46.2478 30.456 44.8718 31.256C43.5278 32.024 42.4398 33.16 41.6078 34.664C40.8078 36.136 40.4078 37.848 40.4078 39.8C40.4078 41.784 40.8078 43.528 41.6078 45.032C42.4398 46.504 43.5278 47.64 44.8718 48.44C46.2478 49.208 47.7358 49.592 49.3358 49.592C50.9678 49.592 52.4558 49.208 53.7998 48.44C55.1758 47.64 56.2638 46.504 57.0638 45.032C57.8638 43.528 58.2638 41.768 58.2638 39.752ZM79.9493 53.432C77.4853 53.432 75.2453 52.872 73.2293 51.752C71.2453 50.632 69.6773 49.048 68.5253 47C67.4053 44.92 66.8453 42.52 66.8453 39.8C66.8453 37.112 67.4213 34.744 68.5733 32.696C69.7573 30.616 71.3573 29.032 73.3733 27.944C75.3893 26.824 77.6453 26.264 80.1413 26.264C82.6373 26.264 84.8933 26.824 86.9093 27.944C88.9253 29.032 90.5093 30.6 91.6613 32.648C92.8453 34.696 93.4373 37.08 93.4373 39.8C93.4373 42.52 92.8293 44.92 91.6133 47C90.4293 49.048 88.8133 50.632 86.7653 51.752C84.7173 52.872 82.4453 53.432 79.9493 53.432ZM79.9493 49.592C81.5173 49.592 82.9893 49.224 84.3653 48.488C85.7413 47.752 86.8453 46.648 87.6773 45.176C88.5413 43.704 88.9733 41.912 88.9733 39.8C88.9733 37.688 88.5573 35.896 87.7253 34.424C86.8933 32.952 85.8053 31.864 84.4613 31.16C83.1173 30.424 81.6613 30.056 80.0933 30.056C78.4933 30.056 77.0213 30.424 75.6773 31.16C74.3653 31.864 73.3093 32.952 72.5093 34.424C71.7093 35.896 71.3093 37.688 71.3093 39.8C71.3093 41.944 71.6933 43.752 72.4613 45.224C73.2613 46.696 74.3173 47.8 75.6293 48.536C76.9413 49.24 78.3813 49.592 79.9493 49.592ZM122.508 26.696V53H118.14V49.112C117.308 50.456 116.14 51.512 114.636 52.28C113.164 53.016 111.532 53.384 109.74 53.384C107.692 53.384 105.852 52.968 104.22 52.136C102.588 51.272 101.292 49.992 100.332 48.296C99.4044 46.6 98.9404 44.536 98.9404 42.104V26.696H103.26V41.528C103.26 44.12 103.916 46.12 105.228 47.528C106.54 48.904 108.332 49.592 110.604 49.592C112.94 49.592 114.78 48.872 116.124 47.432C117.468 45.992 118.14 43.896 118.14 41.144V26.696H122.508ZM135.212 30.296V45.8C135.212 47.08 135.484 47.992 136.028 48.536C136.572 49.048 137.516 49.304 138.859 49.304H142.076V53H138.14C135.708 53 133.884 52.44 132.668 51.32C131.452 50.2 130.844 48.36 130.844 45.8V30.296H127.436V26.696H130.844V20.072H135.212V26.696H142.076V30.296H135.212ZM148.76 53.288C147.928 53.288 147.224 53 146.648 52.424C146.072 51.848 145.784 51.144 145.784 50.312C145.784 49.48 146.072 48.776 146.648 48.2C147.224 47.624 147.928 47.336 148.76 47.336C149.56 47.336 150.232 47.624 150.776 48.2C151.352 48.776 151.64 49.48 151.64 50.312C151.64 51.144 151.352 51.848 150.776 52.424C150.232 53 149.56 53.288 148.76 53.288Z" fill="#F8970C"/>
<path d="M196.84 19.496V53H190.12V31.208L181.144 53H176.056L167.032 31.208V53H160.312V19.496H167.944L178.6 44.408L189.256 19.496H196.84ZM228.204 39.128C228.204 40.088 228.14 40.952 228.012 41.72H208.572C208.732 43.64 209.404 45.144 210.588 46.232C211.772 47.32 213.228 47.864 214.956 47.864C217.452 47.864 219.228 46.792 220.284 44.648H227.532C226.764 47.208 225.292 49.32 223.116 50.984C220.94 52.616 218.268 53.432 215.1 53.432C212.54 53.432 210.236 52.872 208.188 51.752C206.172 50.6 204.588 48.984 203.436 46.904C202.316 44.824 201.756 42.424 201.756 39.704C201.756 36.952 202.316 34.536 203.436 32.456C204.556 30.376 206.124 28.776 208.14 27.656C210.156 26.536 212.476 25.976 215.1 25.976C217.628 25.976 219.884 26.52 221.868 27.608C223.884 28.696 225.436 30.248 226.524 32.264C227.644 34.248 228.204 36.536 228.204 39.128ZM221.244 37.208C221.212 35.48 220.588 34.104 219.372 33.08C218.156 32.024 216.668 31.496 214.908 31.496C213.244 31.496 211.836 32.008 210.684 33.032C209.564 34.024 208.876 35.416 208.62 37.208H221.244Z" fill="#7C7C7C"/>
</svg>
